<?xml version="1.0" encoding="UTF-8"?>
<svg id="Layer_1" data-name="Layer 1" xmlns="http://www.w3.org/2000/svg" viewBox="0 0 500 500">
  <defs>
    <style>
      .cls-1 {
        fill: #ffedd6;
      }

      .cls-2 {
        fill: none;
        stroke: #ffedd6;
        stroke-miterlimit: 10;
        stroke-width: 7px;
      }
    </style>
  </defs>
  <g>
    <path class="cls-2" d="M222.02,270.35c-7.11,30.07-39.1,55.7-74.92,54.59-39.23-1.21-62.61-33.86-70.51-55.22-2.88-7.78-9.06-24.5-1.25-38.86,6.22-11.44,18.09-15.45,34.27-20.91,10.02-3.38,28.88-9.5,53.75-6.25,17.84,2.34,39.34,5.15,51.77,22.77,12.44,17.63,8.03,39.06,6.9,43.88Z"/>
    <path class="cls-2" d="M413.33,279.95c-12.23,23.08-35.73,37.75-59.67,40.55-7.15.84-22.1,2.39-37.61-5.64-22.39-11.59-38.96-39.51-32.6-65.19,4.27-17.23,17.29-27.1,22.39-30.96,16.91-12.82,35.07-13.67,50.32-14.17,23.37-.77,48.39-1.6,60.92,15.42,15.61,21.21-.36,53.6-3.75,59.99Z"/>
    <path class="cls-2" d="M37.1,210.8c-2.39,4.48-1.21,10.92,1.88,15.04,3.8,5.07,8.48,3.96,13.79,8.15,6.57,5.18,7.72,13.45,8.78,18.81,0,0,3.79,19.25,18.18,44.51,14.43,25.33,43.96,34.06,50.15,35.73,6.7,1.81,38.66,9.59,68.33-9.4,33.3-21.32,41.69-62.28,36.98-70.21-.42-.71-2.82-4.31-3.13-9.4-.1-1.66-.31-4.99,1.25-7.52,1.61-2.61,4.75-3.84,20.69-4.39,16.72-.58,20.21.54,21.94,3.13,1,1.51,1.7,3.94,1.25,6.27-.56,2.92-2.72,4.53-3.76,5.64-.98,1.04-4.18,5.03-.63,20.06,2.68,11.34,5.59,23.62,15.67,36.36,19.01,24.01,46.67,28.35,50.15,28.83,31.03,4.37,60.85-11.28,75.22-31.34,15.02-20.97,19.43-41.37,19.43-41.37,2.19-10.12,3.14-22.89,12.54-28.83,3.58-2.26,7.21-2.8,10.03-6.9,3.13-4.55,3.78-11.36,1.88-15.67-3.5-7.97-16-8.27-52.66-10.66-41.14-2.68-43.19-3.47-54.54-2.51-21.6,1.83-32.56,2.76-45.13,10.03-9.59,5.55-12.95,10.64-23.82,13.16-7.13,1.66-8.69.17-26.95,0-19.88-.18-20.68,1.56-28.21,0-12.73-2.64-13.22-8.2-27.58-15.04-14.78-7.04-28.04-7.71-48.89-8.78-7.94-.4-16.16-.06-32.6.63-27.58,1.15-10.77,1.74-62.68,8.15-6.3.78-14.47,1.75-17.55,7.52Z"/>
  </g>
  <path class="cls-1" d="M96.49,109.33c9.95-5.69,16.27-16.06,17.35-27.38l-7.97,4.57c13.12,7.14,28.96,7.42,42.43,1.08l-6.42-8.32c-5.52,6.1-6.99,14.6-5.08,22.48s7.05,14.35,12.64,19.83l5.15-8.85c-9.81-1.79-19.87,1.12-26.89,8.31-6.23,6.39-9.47,14.88-12.48,23.1l10.4,1.41c-1.63-16.2-10.47-30.79-23.88-40-3.72-2.56-7.8-4.53-12.05-6.05-2.61-.93-5.91,1.05-6.51,3.7-.68,2.97.9,5.51,3.7,6.51.4.14.8.29,1.19.44.17.07.34.13.51.2.87.34-.14-.05-.26-.12.75.39,1.55.69,2.3,1.06,1.57.78,3.09,1.64,4.57,2.59.71.46,1.41.93,2.1,1.43.29.21.58.43.87.65.58.42-.77-.62-.21-.16.19.15.38.3.57.45,1.36,1.11,2.66,2.29,3.9,3.53s2.33,2.47,3.4,3.78c.14.17.29.43.45.57,0,0-.62-.82-.27-.35.25.34.51.68.76,1.02.5.69.97,1.39,1.43,2.1.95,1.47,1.83,2.99,2.62,4.56.38.75.75,1.52,1.09,2.29.07.16.13.35.22.5,0,0-.4-.98-.18-.43.18.45.36.9.53,1.35.68,1.81,1.25,3.66,1.7,5.54.23.94.42,1.89.59,2.84.03.18.06.36.09.54.01.09.18,1.28.07.37-.1-.77-.02-.14,0,.02.04.36.08.72.12,1.08.27,2.65,1.81,4.83,4.59,5.2s4.89-1.28,5.81-3.79c.65-1.78,1.31-3.56,2.01-5.32.17-.43.35-.85.52-1.28.23-.54.2-.49-.08.17.1-.24.21-.48.31-.72.37-.84.75-1.67,1.16-2.5.8-1.63,1.67-3.22,2.65-4.75.46-.72.93-1.6,1.53-2.21-.92.93-.09.12.12-.13.33-.39.66-.77,1.01-1.15.61-.66,1.24-1.28,1.91-1.87.11-.09,1.26-1.09.65-.57s.62-.44.75-.53c.79-.53,1.61-1.02,2.45-1.45.24-.12.49-.24.73-.36.54-.24.49-.23-.15.04.28-.19.82-.32,1.14-.43.9-.32,1.81-.58,2.74-.79.48-.11,1.11-.33,1.6-.3-1.3-.08-.16.02.21,0,.95-.08,1.9-.11,2.85-.08.54.02,1.08.07,1.63.11.61.07.54.06-.2-.03.27.04.54.09.8.14,2.25.41,4.83-.25,5.98-2.43s.9-4.72-.83-6.42c-1.18-1.16-2.34-2.35-3.43-3.59-.55-.62-1.08-1.26-1.6-1.9-.87-1.08.63.89-.18-.24-.24-.34-.48-.67-.72-1.01-.89-1.3-1.71-2.64-2.42-4.05-.18-.37-.35-.74-.53-1.11-.16-.36-.12-.25.13.33-.08-.19-.15-.38-.23-.57-.29-.75-.54-1.51-.76-2.29-.18-.66-.34-1.33-.46-2.01-.04-.25-.09-.49-.12-.74l.09.66c-.15-.22-.08-.84-.1-1.13-.05-.75-.06-1.51-.02-2.26.02-.38.05-.75.08-1.12.09-1.28-.23,1.18,0-.07.14-.73.29-1.46.5-2.17.1-.35.24-.7.35-1.05.31-1.01-.49.93.03-.1.31-.6.61-1.2.97-1.77.09-.14.74-1.23.32-.52s.41-.46.54-.6c1.78-1.97,2.07-4.81.41-6.95s-4.41-2.51-6.83-1.36c-.26.12-.83.49-1.12.51.57-.24.68-.28.32-.14-.19.08-.38.15-.57.23-.7.27-1.41.52-2.12.76-1.43.46-2.88.85-4.35,1.15-.7.14-1.5.4-2.22.39,1.33,0,.08-.01-.22.02-.41.04-.82.08-1.22.11-1.5.12-3,.15-4.5.11-.75-.02-1.5-.06-2.25-.13-.34-.03-.68-.06-1.02-.1-.2-.02-.41-.05-.61-.07-.4-.05-.27-.03.39.05-.17.18-1.95-.33-2.22-.39-.74-.15-1.47-.32-2.19-.51-1.45-.38-2.88-.84-4.28-1.37-.25-.1-.51-.2-.76-.3l.51.22c-.34-.07-.81-.36-1.12-.51-.74-.35-1.47-.72-2.19-1.12-1.68-.91-3.67-.98-5.35,0s-2.44,2.66-2.62,4.57c-.02.22-.11.53-.08.75-.14-1,.09-.64,0-.1s-.2,1.11-.33,1.66c-.24,1.04-.53,2.06-.88,3.07-.17.5-.5,1.06-.6,1.58.06-.31.38-.85.08-.23-.14.28-.27.57-.41.85-.5,1.01-1.06,1.99-1.67,2.94-.27.42-.56.84-.85,1.24-.47.66-.39.23.04-.02-.17.1-.34.43-.47.59-.72.87-1.49,1.7-2.3,2.48-.41.39-.83.77-1.25,1.14-.19.16-.39.32-.58.48-.55.48.77-.55.18-.14-.98.69-1.95,1.36-2.99,1.95-2.41,1.38-3.44,4.86-1.9,7.24s4.67,3.37,7.24,1.9h0Z"/>
  <g>
    <path class="cls-1" d="M201.82,100.32c.49,9.52.98,19.04,1.46,28.56.21,4.02,3.4,7.9,7.71,7.71,4-.18,7.93-3.39,7.71-7.71-.49-9.52-.98-19.04-1.46-28.56-.21-4.02-3.4-7.9-7.71-7.71-4,.18-7.93,3.39-7.71,7.71h0Z"/>
    <path class="cls-1" d="M194.52,126.26h30.93c4.03,0,7.89-3.54,7.71-7.71s-3.39-7.71-7.71-7.71h-30.93c-4.03,0-7.89,3.54-7.71,7.71s3.39,7.71,7.71,7.71h0Z"/>
  </g>
  <g>
    <path class="cls-1" d="M409.5,369.39c.49,9.52.98,19.04,1.46,28.56.21,4.02,3.4,7.9,7.71,7.71,4-.18,7.93-3.39,7.71-7.71-.49-9.52-.98-19.04-1.46-28.56-.21-4.02-3.4-7.9-7.71-7.71-4,.18-7.93,3.39-7.71,7.71h0Z"/>
    <path class="cls-1" d="M402.19,395.34h30.93c4.03,0,7.89-3.54,7.71-7.71s-3.39-7.71-7.71-7.71h-30.93c-4.03,0-7.89,3.54-7.71,7.71s3.39,7.71,7.71,7.71h0Z"/>
  </g>
</svg>