<?xml version="1.0" encoding="UTF-8"?>
<svg id="Layer_2" data-name="Layer 2" xmlns="http://www.w3.org/2000/svg" viewBox="0 0 360 360">
  <defs>
    <style>
      .cls-1 {
        fill: #ffeed5;
      }
    </style>
  </defs>
  <path class="cls-1" d="M88.83,262.81c-15.85,0-28.19-3.6-37.03-10.79-8.84-7.2-13.25-17.53-13.25-31.01,0-14.21,4.41-24.73,13.25-31.56,8.83-6.83,21.18-10.25,37.03-10.25h40.17v28.15h-20.77c-6.38,0-11.3,1.09-14.76,3.28-3.46,2.19-5.19,5.29-5.19,9.29,0,2.73,1.18,4.83,3.55,6.29,2.37,1.46,5.64,2.19,9.84,2.19,4.55,0,8.47-.86,11.75-2.6,3.28-1.73,5.83-4.19,7.65-7.38,1.82-3.18,2.73-6.87,2.73-11.07h12.84c0,17.67-4.19,31.33-12.57,40.99-8.38,9.66-20.13,14.48-35.25,14.48ZM125.17,259.53l-1.37-31.42v-35.52c0-6.37-.37-12.11-1.09-17.22-.73-5.1-2.55-9.11-5.46-12.02-2.92-2.91-7.65-4.37-14.21-4.37-4.56,0-8.29,1.09-11.2,3.28-2.92,2.19-5.38,4.74-7.38,7.65l-42.9-13.66c3.83-7.47,8.61-13.94,14.35-19.4,5.74-5.47,12.48-9.7,20.22-12.71,7.74-3.01,16.35-4.51,25.82-4.51,14.57,0,27.05,2.64,37.44,7.92,10.38,5.29,18.31,12.66,23.77,22.13,5.47,9.47,8.2,20.49,8.2,33.06v76.78h-46.18Z"/>
  <g>
    <path class="cls-1" d="M209.69,189.61c-9.02,3.16-17.21,3.63-24.55,1.42.16-10.31.33-20.63.49-30.94,1.08.58,4.56,2.28,8.7,1.24.99-.25,4.33-1.09,5.85-3.86,1.48-2.7.48-5.89.02-7.25-8.13-23.77-16.26-47.54-24.39-71.3,10.94-3.84,21.89-7.67,32.83-11.51,8.45,24.61,16.91,49.22,25.36,73.83,3.89,11.09,3.7,20.91-.56,29.46-4.26,8.54-12.18,14.85-23.76,18.91Z"/>
    <path class="cls-1" d="M189.27,66.34c-5.12,1.79-10.19,1.49-15.21-.93-5.02-2.41-8.43-6.18-10.22-11.3-1.79-5.12-1.49-10.19.93-15.21s6.18-8.43,11.3-10.23,10.19-1.48,15.21.93c5.02,2.42,8.43,6.18,10.23,11.3s1.48,10.19-.93,15.21c-2.42,5.02-6.18,8.43-11.3,10.22Z"/>
  </g>
  <g>
    <path class="cls-1" d="M219.82,304.33c-8.86-2.39-15.91-6.37-21.17-11.93-5.26-5.56-8.58-12.48-9.96-20.75-1.38-8.27-.7-17.51,2.06-27.74,2.79-10.35,6.86-18.72,12.19-25.11,5.34-6.39,11.67-10.67,19.02-12.83,7.34-2.17,15.44-2.06,24.3.33,7.73,2.09,13.6,5.75,17.61,10.97,4.01,5.23,6.24,11.82,6.71,19.77.46,7.95-.7,17.11-3.49,27.46-2.76,10.23-6.35,18.69-10.76,25.4-4.42,6.71-9.67,11.31-15.77,13.81-6.09,2.5-13.01,2.71-20.74.63ZM237.18,275.69c3.12.84,6.1.81,8.96-.09,2.85-.9,5.32-2.51,7.42-4.82,2.09-2.31,3.61-5.21,4.56-8.71.94-3.49,1.09-6.76.44-9.82-.65-3.05-1.99-5.65-4.02-7.81s-4.67-3.67-7.91-4.54c-2.99-.81-5.88-.78-8.65.08-2.78.86-5.21,2.44-7.3,4.75-2.1,2.31-3.68,5.2-4.74,8.66-.82,3.53-.9,6.82-.25,9.87.65,3.05,1.98,5.69,3.99,7.9,2.01,2.22,4.51,3.73,7.51,4.53ZM246.99,309.25l3.01-17.85c12.62-46.38,25.23-92.76,37.85-139.15l33.59,9.06c-14.15,52.19-28.31,104.38-42.46,156.57l-31.99-8.63Z"/>
    <path class="cls-1" d="M269.05,288.75l-21.6-5.83c-1.06-3.72-3.05-12.55-.17-23.21,1.01-3.74,3.86-12.33,11.82-19.98,7.2,1.94,14.4,3.88,21.6,5.83l-11.65,43.19Z"/>
  </g>
  <path class="cls-1" d="M132.61,268.99c2.12,1.98,8.04,6.93,17,7.94,13.95,1.56,23.61-7.75,24.94-9.07-.62,1.64-4.33,11.88,1.13,22.67,5.92,11.7,17.74,14.41,19.27,14.74-1.95.27-13.54,2.07-20.4,12.47-3.9,5.91-4.46,11.86-4.53,14.74-3.06-2.05-10.75-6.59-21.54-6.8-9.13-.18-16,2.84-19.27,4.53.34-3.05.58-9.12-2.27-15.87-4.19-9.91-12.21-14.54-14.74-15.87,2.14-.65,11.61-3.8,17-13.6,3.69-6.7,3.6-13.11,3.4-15.87Z"/>
  <path class="cls-1" d="M289.97,93.74c-1.03,2.18-3.48,8.12-2.02,15.5,2.28,11.46,12.1,16.79,13.48,17.51-1.46-.08-10.52-.45-17.71,6.61-7.79,7.65-6.97,17.71-6.84,19.01-.71-1.48-5.05-10.23-15.04-13.05-5.68-1.61-10.54-.55-12.84.11.85-2.94,2.52-10.19-.03-18.81-2.16-7.29-6.28-11.99-8.45-14.15,2.5-.5,7.39-1.84,12.03-5.8,6.81-5.82,8.46-13.35,8.88-15.69,1.06,1.54,5.94,8.26,15.08,10.07,6.25,1.24,11.32-.44,13.45-1.3Z"/>
</svg>