<?xml version="1.0" encoding="UTF-8"?>
<svg id="Layer_1" data-name="Layer 1" xmlns="http://www.w3.org/2000/svg" viewBox="0 0 850 550">
  <defs>
    <style>
      .cls-1 {
        fill: #ffedd6;
      }

      .cls-2 {
        fill: none;
        stroke: #ffedd6;
        stroke-miterlimit: 10;
        stroke-width: 7.38px;
      }
    </style>
  </defs>
  <g>
    <line class="cls-2" x1="617.77" y1="305.3" x2="635.27" y2="322.8"/>
    <rect class="cls-2" x="633.16" y="196.52" width="175.55" height="46.25" transform="translate(55.85 574.11) rotate(-45)"/>
    <path class="cls-2" d="M665.59,307.68l-32.7-32.7-2.33,2.33c-2.16.69-4.04,2.29-4.96,4.66l-14.61,37.32c-2.52,6.45,3.84,12.82,10.29,10.29l37.32-14.61c2.37-.93,3.97-2.81,4.66-4.96l2.33-2.33Z"/>
    <path class="cls-2" d="M809.37,164.36l5.09-5.09c4.08-4.08,4.08-10.69,0-14.77l-17.93-17.93c-4.08-4.08-10.69-4.08-14.77,0l-5.09,5.09,32.7,32.7Z"/>
  </g>
  <rect class="cls-2" x="76.55" y="85" width="224.26" height="283.27" rx="12" ry="12" transform="translate(-56.13 62.22) rotate(-16.34)"/>
  <rect class="cls-2" x="397.44" y="65.08" width="139.75" height="178.52" rx="12" ry="12" transform="translate(28.81 -69.09) rotate(8.72)"/>
  <rect class="cls-2" x="367.94" y="343.93" width="165.24" height="147.54" rx="12" ry="12"/>
  <path class="cls-1" d="M585.07,339.74c-1.03,1.38-2.06,2.76-3.1,4.13-.26.34-.52.68-.78,1.03-.01.02-.88,1.14-.36.47-.61.8-1.23,1.59-1.86,2.38-2.13,2.71-4.31,5.39-6.53,8.03-4.53,5.38-9.24,10.61-14.18,15.62s-10.06,9.78-15.45,14.27c-3.01,2.51-4.98,4.06-7.88,6.19s-5.6,4-8.48,5.86c-6.01,3.88-12.29,7.36-18.79,10.35-.8.37-1.6.73-2.4,1.08-.4.18-.8.35-1.21.52.79-.34-.54.22-.56.23-1.62.67-3.25,1.31-4.9,1.91-3.42,1.26-6.89,2.39-10.4,3.36s-6.76,1.73-10.18,2.38c-1.71.32-3.43.6-5.15.86-1.41.21.87-.1-.55.08-.43.05-.86.11-1.29.16-1.01.12-2.02.22-3.02.31-6.99.63-14.05.6-21.02-.18-.35-.04-.71-.08-1.06-.13-1.4-.17.87.15-.52-.07-.85-.13-1.69-.26-2.53-.42-1.82-.34-3.63-.74-5.41-1.25-1.64-.46-3.24-1.02-4.83-1.63-1.29-.49.75.37-.5-.21-.38-.18-.77-.35-1.15-.53-.76-.37-1.51-.76-2.25-1.18s-1.46-.86-2.17-1.33c-.33-.22-.66-.44-.98-.68-.1-.07-1.09-.85-.33-.24-1.3-1.05-2.53-2.19-3.65-3.43-.26-.29-.51-.58-.76-.87-.07-.09-.85-1.1-.27-.31-.46-.62-.9-1.25-1.31-1.9-.34-.54-.66-1.09-.96-1.65-.18-.34-.35-.67-.52-1.02-.11-.23-.22-.46-.32-.69.19.48.2.48,0,0-.53-1.42-.98-2.86-1.25-4.35-.03-.17-.16-1.4-.06-.32-.03-.38-.07-.75-.09-1.13-.05-.89-.04-1.78.02-2.66.01-.16.16-1.42,0-.33.05-.37.12-.74.19-1.11.12-.61.27-1.22.44-1.82.21-.72.46-1.42.72-2.13.42-1.16-.4.78.14-.32.22-.45.43-.91.67-1.35.71-1.35,1.56-2.61,2.43-3.86.72-1.04-.56.65.24-.33.25-.3.49-.6.74-.89.59-.69,1.2-1.36,1.83-2.01,1-1.02,2.05-2,3.13-2.93.3-.25.6-.5.9-.75.08-.07,1.1-.87.32-.27.72-.56,1.46-1.09,2.21-1.61,1.42-.97,2.89-1.88,4.42-2.66.38-.2.78-.38,1.16-.57,1.23-.61-.76.25.52-.23.79-.3,1.59-.58,2.41-.8.4-.11.81-.21,1.22-.29.11-.02,1.45-.22.46-.1.82-.09,1.64-.12,2.47-.09.12,0,1.44.17.46.01.41.07.82.15,1.22.26s.78.24,1.18.36c.48.19.5.19.06.01.24.11.48.23.72.36.72.38,1.39.82,2.05,1.29-.74-.53.31.26.38.32.31.27.61.54.91.82.49.47.96.96,1.42,1.47.26.3.52.6.77.9.16.19.31.39.47.58-.31-.41-.32-.41-.02,0,.84,1.2,1.65,2.41,2.36,3.69.35.63.68,1.28.99,1.93.15.33.3.65.45.98-.45-1.01.16.42.23.61,1.02,2.71,1.69,5.52,2.14,8.38.19,1.21-.08-.95.03.27.03.37.08.73.11,1.09.07.73.12,1.47.15,2.21.08,1.62.08,3.24.01,4.85-.06,1.39-.16,2.77-.3,4.16-.04.38-.09.76-.13,1.14-.14,1.27.15-.92-.04.34-.13.89-.27,1.77-.43,2.66-.57,3.18-1.34,6.32-2.26,9.42s-1.89,5.87-3.02,8.74c-.28.71-.57,1.41-.85,2.11-.49,1.18.4-.91-.16.38-.17.39-.34.79-.52,1.19-.7,1.58-1.44,3.14-2.27,4.65-.42.75-.85,1.49-1.32,2.21-.23.36-.47.71-.72,1.06-.02.03-.88,1.12-.34.47-.54.65-1.1,1.28-1.7,1.88-.28.27-.56.54-.85.79-.13.11-1.37,1.12-.59.52-1.22.92-2.53,1.72-3.9,2.41-.29.14-.57.28-.86.42-.2.09-.99.44-.18.1-.83.35-1.69.66-2.55.94-1.49.49-3.01.88-4.55,1.21-.77.16-1.55.31-2.33.44-.39.07-.78.12-1.17.18-.52.07-.52.08,0,0-.26.03-.52.07-.79.1-3.2.38-6.42.57-9.64.67-6.71.21-13.43-.05-20.1-.77-.82-.09-1.63-.18-2.45-.29-.1-.01-1.46-.19-.45-.06-.41-.06-.81-.11-1.22-.17-1.63-.24-3.25-.5-4.87-.79-3.37-.6-6.72-1.32-10.05-2.16-6.51-1.63-12.92-3.71-19.15-6.19-.76-.3-1.52-.62-2.28-.93.86.36-.39-.17-.46-.2-.31-.14-.63-.27-.94-.41-1.57-.69-3.12-1.4-4.67-2.15-3.09-1.48-6.12-3.07-9.1-4.77-5.83-3.32-11.45-7.03-16.76-11.13.15.11.6.47-.08-.06-.32-.25-.65-.51-.97-.76-.64-.51-1.28-1.03-1.91-1.55-1.37-1.13-2.71-2.29-4.04-3.47-2.39-2.13-4.7-4.34-6.94-6.62s-4.58-4.84-6.74-7.38c-1.04-1.22-2.05-2.45-3.05-3.7-.42-.52-.83-1.04-1.23-1.57.58.75-.23-.3-.28-.37-.32-.42-.64-.85-.96-1.28-3.89-5.25-7.43-10.75-10.59-16.46-1.62-2.91-3.14-5.88-4.56-8.9-.62-1.33-1.23-2.66-1.82-4.01-.16-.37-.32-.73-.47-1.1.38.89-.14-.33-.17-.42-.36-.86-.71-1.73-1.05-2.6-2.38-6.08-4.37-12.31-5.94-18.65-.77-3.1-1.43-6.23-1.99-9.38-.28-1.57-.54-3.15-.76-4.73-.02-.12-.2-1.44-.06-.41-.05-.4-.1-.79-.15-1.19-.12-.93-.22-1.85-.32-2.78-1.63-15.59-.22-31.23-.13-46.86.08-13.95-1.02-28.27-6.03-41.42-2.51-6.6-5.86-12.69-10.32-18.17s-9.63-9.58-15.42-13.01c-11.66-6.91-25.23-10.46-38.56-12.29-14.14-1.94-29.57-1.65-42.08,6.11-19.75,12.25-27.65,40.03-16.68,60.63,6.12,11.5,17.08,19.84,28.76,25.13,13.37,6.06,28.02,9.02,42.66,9.52,29.44,1,58.32-8.25,83.53-23.04,12.34-7.24,23.9-15.81,34.75-25.12s21.62-20.27,32.07-30.77c5.2-5.23,10.43-10.43,15.82-15.45,2.81-2.62,5.66-5.18,8.57-7.68,1.35-1.16,2.71-2.3,4.09-3.43.66-.54,1.32-1.07,1.98-1.6.22-.18.44-.35.66-.53.12-.09,1.4-1.09.78-.61,5.49-4.24,11.25-8.16,17.26-11.63,3.05-1.76,6.18-3.4,9.37-4.9.76-.36,1.53-.71,2.3-1.05.26-.11.51-.23.77-.34.05-.02,1.33-.56.49-.21,1.68-.7,3.38-1.36,5.09-1.97,3.29-1.17,6.64-2.18,10.04-2.98,1.5-.35,3-.67,4.52-.95.83-.15,1.66-.29,2.49-.42.09-.01,1.46-.21.49-.08.56-.07,1.12-.14,1.67-.2,3.28-.36,6.58-.51,9.88-.36.82.04,1.65.09,2.47.17.41.04.82.09,1.23.13,1.34.14-.88-.16.45.06,1.75.29,3.47.63,5.18,1.12.78.22,1.55.47,2.31.74.38.14.76.28,1.13.43,1.23.47-.76-.39.43.18,1.46.7,2.89,1.44,4.25,2.34.34.22.67.47,1.01.69.97.64-.67-.59.22.16.54.46,1.07.91,1.58,1.4s.99,1,1.46,1.54c.23.27.46.54.68.81-.7-.84.25.35.37.52.74,1.06,1.41,2.18,1.98,3.34.16.32.3.64.45.96-.46-.99.02.07.09.24.29.76.54,1.54.75,2.32.18.67.3,1.35.44,2.03.24,1.13-.06-.97.03.18.03.34.06.68.08,1.02.04.68.04,1.36.01,2.04-.02.34-.05.68-.08,1.02-.06.51-.05.45.03-.17-.04.22-.07.45-.12.67-.11.56-.25,1.11-.41,1.65-.1.33-.22.65-.32.97-.34,1.08.43-.8-.08.22-.29.59-.58,1.17-.92,1.73-.16.27-.34.53-.51.78-.12.17-.24.34-.37.5.38-.49.42-.54.11-.17-.42.45-.82.92-1.27,1.35-.22.21-.45.42-.69.62-.27.23-.71.88-.07.08-.71.9-2.33,1.47-3.32,1.99-.25.13-.89.51.06,0-.27.15-.59.24-.88.34-.59.21-1.19.4-1.8.57s-1.23.3-1.85.42c-.27.05-1.26.34-.08.04-.39.1-.86.1-1.27.13-1.28.09-2.56.08-3.83-.03-.3-.03-1.26.05-.09,0-.29.01-.66-.1-.95-.16-.63-.12-1.25-.26-1.86-.43s-1.22-.37-1.82-.59c-.35-.13-1.11-.17-.12-.04-.26-.04-.63-.29-.86-.41-.59-.3-1.17-.63-1.73-.98-.3-.19-.61-.39-.9-.6-.2-.14-.39-.28-.58-.42.42.33.43.34.05.03-1.1-.92-2.14-1.89-3.09-2.96-.19-.21-1.28-1.6-.66-.76-.5-.67-.98-1.36-1.42-2.07-.77-1.23-1.42-2.51-2.03-3.82-.51-1.09.3.85-.12-.28-.13-.34-.26-.68-.38-1.02-.29-.8-.54-1.61-.77-2.43-.36-1.3-.61-2.61-.84-3.93-.21-1.21.08.95-.04-.27-.03-.36-.08-.73-.11-1.09-.07-.85-.11-1.7-.12-2.55-.02-1.41.05-2.82.2-4.23.03-.24.05-1.35,0-.16.01-.32.1-.67.16-.99.13-.77.29-1.53.47-2.28.28-1.18.62-2.35,1.01-3.49.21-.62.45-1.24.69-1.85.4-1.05-.4.87.06-.16.18-.4.36-.8.55-1.2,1.14-2.38,2.51-4.65,4.08-6.78.12-.16.81-1.05.11-.16.21-.26.41-.52.62-.78.42-.52.85-1.02,1.3-1.52.96-1.08,1.98-2.12,3.04-3.12.98-.92,2.02-1.79,3.06-2.65.88-.73-.75.55.17-.14.18-.14.36-.27.54-.4.64-.47,1.29-.92,1.94-1.36,2.36-1.58,4.85-2.96,7.43-4.15.31-.14.62-.28.94-.42,1.06-.47-.88.34.2-.08.58-.23,1.16-.46,1.75-.67,1.34-.49,2.69-.92,4.07-1.3s2.65-.67,3.99-.93c.67-.13,1.34-.23,2.02-.34,1.15-.19-.98.1.17-.02.45-.05.9-.1,1.35-.15,2.71-.25,5.43-.28,8.14-.05.69.06,1.37.13,2.05.22-1.13-.14.08.02.26.05.36.06.72.12,1.07.18,1.54.27,3.07.61,4.58,1.01,1.27.34,2.53.72,3.78,1.15.68.23,1.35.48,2.02.74.33.13.67.27,1,.4.46.19.44.18-.07-.03.22.09.44.19.66.29,2.63,1.17,5.17,2.52,7.6,4.04,1.22.76,2.42,1.57,3.59,2.41.29.21.59.42.88.64.12.09,1.09.83.26.18.67.52,1.33,1.05,1.98,1.59,2.24,1.87,4.35,3.88,6.35,6.01,1,1.07,1.97,2.17,2.91,3.29.47.56.93,1.14,1.39,1.71.77.96-.53-.72.21.27.29.39.59.78.88,1.18,1.73,2.38,3.33,4.85,4.78,7.41.73,1.28,1.42,2.57,2.07,3.89.33.66.64,1.32.95,1.98.15.33.31.67.46,1,.08.17.7,1.63.28.62,1.21,2.9,2.22,5.87,3.14,8.87,2.09,6.86,3.86,13.81,6.83,20.37,2.65,5.85,6.53,11.18,11.49,15.29s10.33,6.96,16.22,9.2c10.98,4.17,22.89,5.56,34.52,6.54,2.31.19,4.53-2.17,4.43-4.43-.11-2.56-1.95-4.22-4.43-4.43-3.03-.26-6.06-.55-9.08-.91-.37-.04-.73-.09-1.1-.14-.17-.02-1.41-.19-.29-.04-.73-.1-1.47-.2-2.2-.32-1.59-.24-3.17-.5-4.74-.8-3.01-.57-5.99-1.25-8.93-2.09-1.39-.4-2.77-.83-4.14-1.31-.68-.24-1.35-.48-2.02-.74-.33-.13-.66-.26-1-.39-.46-.19-.44-.18.07.04-.22-.09-.43-.19-.65-.28-2.67-1.18-5.26-2.55-7.69-4.17-.58-.38-1.15-.78-1.71-1.19-.14-.1-1.06-.83-.21-.15-.27-.22-.54-.43-.81-.65-1.16-.96-2.27-1.99-3.31-3.08-.48-.51-.96-1.03-1.41-1.56-.23-.27-.45-.54-.68-.82-.76-.91.52.74-.18-.23-1.03-1.43-2-2.9-2.85-4.44-.4-.73-.79-1.48-1.15-2.23-.18-.38-.36-.76-.53-1.14-.02-.05-.58-1.32-.22-.48-.71-1.68-1.33-3.41-1.91-5.14-2.2-6.57-3.73-13.35-6.26-19.81-2.33-5.95-5.24-11.64-8.85-16.91-7.05-10.29-16.4-19.22-27.57-24.92-11.29-5.76-23.91-8.08-36.43-5.77-11.57,2.13-22.69,8.19-30.69,16.82s-13.21,20.4-12.45,32.44c.82,13.02,8.06,26.4,21.06,30.64,11.15,3.63,25.62-.62,30.65-11.85,5.7-12.75-1.35-27.55-12.86-34.27-12.53-7.31-28.31-6.42-41.93-3.19s-27.01,9.79-38.82,17.75c-25.23,17.02-44.7,40.67-66.96,61.1-5.3,4.86-10.76,9.53-16.42,13.97-.34.27-.68.53-1.02.8.67-.52-.45.35-.47.36-.69.52-1.37,1.05-2.06,1.56-1.5,1.12-3,2.22-4.53,3.31-2.92,2.08-5.89,4.1-8.92,6.04-6.03,3.87-12.25,7.43-18.67,10.61-1.54.76-3.09,1.5-4.65,2.22-.78.36-1.56.71-2.35,1.06-.39.17-.79.35-1.18.52-.14.06-1.66.7-.92.39-3.34,1.39-6.72,2.68-10.15,3.85-7.14,2.43-14.45,4.32-21.88,5.63-.89.16-1.78.3-2.68.44-.45.07-.89.14-1.34.2-.02,0-1.5.21-.61.09-1.94.26-3.89.47-5.84.65-3.74.33-7.5.51-11.26.52s-7.2-.14-10.78-.45c-1.79-.15-3.58-.34-5.36-.58.89.12-.57-.09-.6-.09-.44-.07-.89-.13-1.33-.21-1.03-.17-2.07-.35-3.1-.54-3.68-.7-7.32-1.58-10.91-2.65-1.64-.49-3.27-1.02-4.88-1.59-.72-.26-1.45-.52-2.16-.8-.36-.14-.72-.28-1.08-.42-.16-.06-1.66-.68-.73-.29-2.96-1.25-5.86-2.69-8.64-4.3-1.33-.77-2.64-1.59-3.91-2.45-.63-.43-1.26-.87-1.88-1.32-.31-.23-.61-.45-.92-.69.79.6-.47-.38-.6-.49-2.45-1.99-4.73-4.18-6.78-6.59-.24-.29-.49-.58-.72-.87-.08-.1-.84-1.1-.24-.29-.45-.6-.9-1.21-1.32-1.84-.92-1.36-1.77-2.77-2.53-4.23-.32-.61-.62-1.24-.91-1.87-.09-.19-.5-1.23-.07-.15-.12-.3-.24-.61-.36-.91-.5-1.32-.92-2.67-1.27-4.05-.29-1.16-.81-2.63-.76-3.83-.05,1.14.03.19-.01-.11s-.07-.65-.1-.97c-.07-.76-.11-1.52-.14-2.28-.04-1.31-.03-2.61.05-3.92.04-.65.09-1.31.16-1.96.03-.32.04-.66.11-.98-.28,1.26.04-.19.08-.44.45-2.7,1.14-5.36,2.07-7.93.22-.62.47-1.23.71-1.84-.43,1.08-.02.04.07-.15.13-.3.27-.6.41-.9.6-1.29,1.27-2.54,2-3.77.67-1.13,1.39-2.22,2.15-3.28.19-.26.39-.53.58-.79-.68.92-.02.03.11-.13.41-.51.83-1,1.27-1.49.87-.97,1.78-1.9,2.74-2.79.48-.44.97-.87,1.47-1.29.25-.21.51-.41.76-.62-.92.75.22-.16.4-.29,1.06-.77,2.16-1.48,3.29-2.12.57-.33,1.15-.64,1.74-.93.36-.18.71-.35,1.07-.52.26-.12.52-.24.78-.35-.4.16-.36.15.13-.05,3.32-1.31,6.76-2.25,10.28-2.82.07-.01,1.47-.22.52-.09.43-.06.85-.11,1.28-.15.86-.09,1.71-.17,2.57-.22,1.87-.12,3.75-.16,5.63-.14,3.63.05,7.27.35,10.87.83-.93-.12.49.07.55.08.43.06.86.13,1.29.2.86.13,1.71.28,2.57.43,1.74.31,3.48.65,5.2,1.02,3.31.71,6.59,1.55,9.82,2.54,1.55.48,3.09.99,4.61,1.54.76.28,1.52.56,2.27.86.38.15.75.3,1.12.45.48.2.5.21.06.02.25.11.49.21.74.32,3.05,1.35,6.01,2.89,8.84,4.66,1.35.85,2.65,1.76,3.94,2.69,1.06.77-.66-.54.36.28.31.25.62.5.93.75.72.59,1.42,1.2,2.1,1.83,1.18,1.09,2.31,2.23,3.38,3.42.53.6,1.06,1.2,1.56,1.83.06.07.87,1.11.3.36.32.42.64.85.95,1.28,1.93,2.69,3.61,5.57,5.04,8.55.35.72.67,1.45,1,2.18.54,1.2-.31-.81.18.42.15.37.3.74.44,1.12.63,1.62,1.2,3.27,1.71,4.93.95,3.09,1.71,6.25,2.32,9.43.3,1.6.56,3.2.79,4.81-.15-1.01.04.32.05.43.05.4.1.81.14,1.21.11.94.2,1.88.29,2.82.34,3.77.49,7.56.54,11.35.11,8.25-.28,16.5-.51,24.75s-.28,15.87.39,23.78c.58,6.89,1.62,13.76,3.14,20.52,5.9,26.34,18.99,51.09,37.38,70.84s43.75,34.95,70.51,42.29c13.3,3.65,27.18,5.53,40.98,5.45s29.57-1.04,38.8-11.99c4.73-5.61,7.51-12.7,9.95-19.53,2.27-6.34,3.89-12.85,4.75-19.53,1.7-13.04-.44-26.53-8.99-36.9-2.18-2.65-4.92-5.08-8.04-6.55-3.92-1.84-8.03-2.21-12.26-1.43-7.12,1.31-13.72,6.01-18.94,10.83s-9.24,10.49-10.91,17.15c-1.75,7.01-.43,14.34,3.24,20.52,7.87,13.24,23.15,18.07,37.66,19.4,14.53,1.33,29.36-.5,43.34-4.59,28.39-8.31,53.05-25.75,73.49-46.8,9.77-10.06,18.64-20.95,26.98-32.21,1.38-1.87.37-5.02-1.59-6.06-2.31-1.22-4.58-.4-6.06,1.59h0Z"/>
</svg>