<?xml version="1.0" encoding="UTF-8"?>
<svg id="Layer_1" data-name="Layer 1" xmlns="http://www.w3.org/2000/svg" viewBox="0 0 600 400">
  <defs>
    <style>
      .cls-1 {
        fill: #ffedd6;
      }

      .cls-2 {
        fill: none;
        stroke: #ffedd6;
        stroke-miterlimit: 10;
        stroke-width: 7.38px;
      }
    </style>
  </defs>
  <g>
    <path class="cls-2" d="M259.98,215.23c-8.4,35.49-46.15,65.74-88.43,64.44-46.31-1.43-73.9-39.96-83.23-65.18-3.4-9.18-10.7-28.92-1.48-45.88,7.34-13.51,21.35-18.23,40.45-24.68,11.83-3.99,34.09-11.22,63.44-7.38,21.06,2.76,46.43,6.08,61.11,26.88,14.68,20.81,9.48,46.11,8.14,51.79Z"/>
    <path class="cls-2" d="M485.8,226.56c-14.44,27.24-42.18,44.56-70.44,47.87-8.44.99-26.09,2.82-44.4-6.66-26.43-13.68-45.99-46.64-38.48-76.95,5.04-20.34,20.41-31.99,26.43-36.55,19.96-15.13,41.4-16.13,59.4-16.73,27.59-.91,57.12-1.89,71.9,18.2,18.42,25.03-.43,63.27-4.43,70.82Z"/>
    <path class="cls-2" d="M41.7,144.94c-2.82,5.29-1.43,12.89,2.22,17.76,4.49,5.98,10.01,4.67,16.28,9.62,7.75,6.12,9.11,15.87,10.36,22.2,0,0,4.47,22.72,21.46,52.53,17.04,29.9,51.89,40.2,59.19,42.18,7.91,2.14,45.64,11.32,80.65-11.1,39.31-25.16,49.22-73.51,43.66-82.87-.5-.83-3.33-5.08-3.7-11.1-.12-1.96-.37-5.89,1.48-8.88,1.9-3.08,5.61-4.53,24.42-5.18,19.74-.68,23.86.64,25.9,3.7,1.19,1.78,2.01,4.65,1.48,7.4-.67,3.44-3.21,5.35-4.44,6.66-1.15,1.22-4.94,5.93-.74,23.68,3.17,13.39,6.6,27.88,18.5,42.92,22.44,28.34,55.09,33.46,59.19,34.04,36.62,5.16,71.83-13.32,88.79-37,17.73-24.75,22.94-48.84,22.94-48.84,2.58-11.95,3.7-27.02,14.8-34.04,4.22-2.67,8.51-3.31,11.84-8.14,3.7-5.38,4.46-13.4,2.22-18.5-4.13-9.41-18.89-9.76-62.15-12.58-48.56-3.17-50.98-4.1-64.37-2.96-25.5,2.17-38.44,3.26-53.27,11.84-11.32,6.55-15.29,12.56-28.12,15.54-8.41,1.96-10.26.2-31.82,0-23.47-.22-24.42,1.84-33.3,0-15.03-3.11-15.6-9.68-32.56-17.76-17.44-8.31-33.1-9.11-57.71-10.36-9.37-.48-19.07-.07-38.48.74-32.55,1.36-12.71,2.05-73.99,9.62-7.43.92-17.08,2.06-20.72,8.88Z"/>
  </g>
  <g>
    <path class="cls-1" d="M133.93,322.78c.28,5.47.56,10.94.84,16.4.12,2.31,1.95,4.54,4.43,4.43,2.3-.1,4.55-1.95,4.43-4.43-.28-5.47-.56-10.94-.84-16.4-.12-2.31-1.95-4.54-4.43-4.43-2.3.1-4.55,1.95-4.43,4.43h0Z"/>
    <path class="cls-1" d="M129.73,337.68h17.77c2.32,0,4.53-2.04,4.43-4.43s-1.94-4.43-4.43-4.43h-17.77c-2.32,0-4.53,2.04-4.43,4.43s1.94,4.43,4.43,4.43h0Z"/>
  </g>
  <path class="cls-1" d="M54.64,326.69c8.33-4.77,13.59-13.41,14.5-22.89l-6.66,3.82c10.99,5.96,24.19,6.2,35.46.9l-5.36-6.95c-4.6,5.11-5.84,12.17-4.26,18.75s5.9,12.02,10.57,16.61l4.31-7.4c-8.18-1.48-16.56.91-22.43,6.9-5.24,5.34-7.95,12.46-10.48,19.36l8.69,1.18c-1.37-13.53-8.74-25.72-19.94-33.43-3.11-2.14-6.53-3.79-10.08-5.06-2.18-.78-4.94.88-5.44,3.09-.57,2.49.75,4.61,3.09,5.44.46.16.91.34,1.36.51.47.19.45.18-.05-.03.22.1.44.19.66.29.77.35,1.53.73,2.28,1.13,1.6.86,3.14,1.83,4.6,2.9.2.14.39.29.58.43-.42-.32-.43-.33-.04-.02.37.31.75.61,1.12.93.64.55,1.27,1.12,1.88,1.71,1.35,1.31,2.59,2.72,3.78,4.18.2.25.15.19-.14-.18.15.19.29.39.43.58.29.39.56.79.84,1.19.51.75,1,1.52,1.46,2.31s.9,1.58,1.3,2.39c.22.43.43.87.63,1.31.05.11.57,1.34.36.8s.27.71.31.82c.17.45.33.91.49,1.37.29.86.55,1.73.77,2.61s.43,1.76.59,2.66c.09.48.16.95.24,1.43-.18-1.16.04.41.06.63.22,2.21,1.51,4.03,3.84,4.35s4.09-1.07,4.86-3.17c.54-1.48,1.09-2.95,1.67-4.42.15-.37.3-.73.45-1.1-.29.72.07-.17.17-.4.29-.66.59-1.32.91-1.97.65-1.35,1.36-2.66,2.16-3.93.41-.65.86-1.28,1.3-1.91-.54.77.19-.23.26-.31.25-.29.5-.58.76-.86.52-.57,1.07-1.1,1.64-1.61.24-.21.49-.41.74-.62.24-.2.2-.16-.13.1.16-.12.33-.24.5-.35.62-.42,1.26-.81,1.92-1.16.36-.19.73-.37,1.1-.54-.8.36.28-.1.46-.16.77-.27,1.56-.5,2.35-.68.4-.09.8-.15,1.2-.23-.93.19.32-.03.45-.04.81-.07,1.63-.08,2.45-.05.34.01.68.06,1.02.07.33.03.27.02-.16-.04.27.04.54.09.81.14,1.88.34,4.03-.21,5-2.03.92-1.73.75-3.95-.69-5.36-.99-.97-1.95-1.96-2.87-3-.41-.47-.8-.96-1.2-1.43-.31-.36.26.38-.2-.25-.2-.28-.41-.56-.6-.84-.75-1.07-1.43-2.18-2.02-3.35-.16-.3-.29-.62-.45-.92-.23-.42.16.49-.12-.27-.23-.63-.46-1.27-.65-1.92-.15-.55-.28-1.1-.39-1.65-.08-.43-.11-.77-.04-.14-.03-.31-.06-.63-.08-.95-.04-.63-.05-1.26-.02-1.89.01-.32.04-.63.06-.94.04-.49.06-.33-.02.06.13-.61.23-1.22.4-1.83.08-.3.18-.59.28-.89.07-.21.45-.95.04-.15.26-.49.49-.99.79-1.47.16-.26.34-.52.52-.77-.44.62.04-.02.26-.26,1.49-1.65,1.73-4.02.35-5.81s-3.68-2.09-5.71-1.14c-.31.15-.63.29-.94.43-.64.29.58-.19-.09.03-.59.2-1.16.44-1.74.63-1.24.41-2.5.74-3.78,1-.61.12-1.22.23-1.83.32.65-.1.09-.01-.26.02-.27.03-.55.06-.82.08-1.3.11-2.61.14-3.92.11-.62-.02-1.24-.05-1.85-.1-.27-.02-.55-.05-.82-.08-.34-.04-.91-.12-.26-.02-1.22-.19-2.44-.43-3.64-.74-1.26-.33-2.51-.73-3.72-1.2-.07-.03-.83-.34-.43-.17.48.21-.51-.24-.6-.28-.62-.29-1.23-.61-1.84-.94-3.15-1.71-6.34.5-6.66,3.82-.02.25-.05.5-.08.75.08-.56.07-.58,0-.07-.1.49-.18.98-.3,1.47-.2.85-.45,1.69-.74,2.51-.06.18-.68,1.64-.25.68-.16.34-.31.68-.48,1.02-.42.84-.88,1.65-1.39,2.44-.24.37-.49.72-.74,1.08-.3.4-.3.4.01,0-.16.2-.31.39-.47.58-.56.67-1.16,1.31-1.79,1.91-.36.35-.73.68-1.11,1-.16.14-1.04.81-.27.24-.8.59-1.64,1.14-2.51,1.63-2.01,1.15-2.88,4.06-1.59,6.06s3.91,2.82,6.06,1.59h0Z"/>
  <g>
    <path class="cls-1" d="M256.1,77.27c.28,5.47.56,10.94.84,16.4.12,2.31,1.95,4.54,4.43,4.43,2.3-.1,4.55-1.95,4.43-4.43-.28-5.47-.56-10.94-.84-16.4-.12-2.31-1.95-4.54-4.43-4.43-2.3.1-4.55,1.95-4.43,4.43h0Z"/>
    <path class="cls-1" d="M251.91,92.17h17.77c2.32,0,4.53-2.04,4.43-4.43s-1.94-4.43-4.43-4.43h-17.77c-2.32,0-4.53,2.04-4.43,4.43s1.94,4.43,4.43,4.43h0Z"/>
  </g>
  <path class="cls-1" d="M131.34,48.55c13.13,1.61,26.56-2.86,36.5-11.48l-7.56-3.13c-.36,7.47,3.59,14.83,9.3,19.48,6.07,4.95,13.51,7.42,21.13,8.77v-8.54c-7.25,2.21-14.53,4.97-20.19,10.17-5.32,4.89-8.41,11.7-10.31,18.56-1.05,3.79-1.76,7.65-2.44,11.52h8.54c-2.5-6.71-7.18-12.44-13.45-15.97s-14.13-4.58-21.34-2.86c-4.31,1.03-8.16,3.09-11.64,5.79l7.4,4.31c.3-.97.64-1.93,1.02-2.88-.28.69.19-.44.24-.54.18-.4.37-.79.56-1.18.8-1.64,1.68-3.24,2.57-4.83,1.82-3.22,3.74-6.4,5.21-9.8,3.21-7.39,4.6-15.71.74-23.15-1.07-2.06-4.12-2.84-6.06-1.59-2.1,1.35-2.73,3.85-1.59,6.06.1.19.54,1.14.24.42.15.37.28.76.4,1.14.24.77.42,1.56.53,2.35-.13-.97,0,.22,0,.43.02.41.03.81.03,1.22,0,.82-.06,1.64-.16,2.46.12-.95-.08.38-.1.46-.08.41-.16.82-.26,1.23-.19.82-.42,1.63-.68,2.43s-.56,1.58-.86,2.37c.31-.8-.19.43-.21.48-.18.38-.36.76-.54,1.14-3.19,6.52-7.45,12.45-9.62,19.45-.56,1.8.35,4.11,2.03,5,1.9,1,3.74.57,5.36-.69-.74.57.56-.37.7-.46.44-.29.88-.57,1.34-.83.8-.46,1.62-.87,2.46-1.24-.85.37.22-.07.41-.14.49-.18.99-.34,1.5-.49.88-.26,1.78-.47,2.68-.64.26-.05.52-.09.78-.13-.53.07-.53.07,0,0,.39-.03.78-.07,1.18-.1,1.05-.06,2.1-.06,3.15,0,.39.03.78.07,1.18.1-1.05-.11.58.1.77.14.89.17,1.76.4,2.62.67.41.13.82.27,1.22.43,1.06.4-.3-.19.48.19s1.54.76,2.29,1.2c.8.47,1.55,1,2.3,1.54.25.19.2.15-.17-.13.19.15.38.31.57.47.37.32.74.65,1.1.99.62.6,1.22,1.22,1.78,1.88.16.19.32.38.47.57-.27-.36-.32-.42-.13-.17.25.35.51.7.75,1.05.48.72.92,1.45,1.33,2.22.23.44.44.88.65,1.32.2.46.2.45-.01-.04.09.23.18.46.26.69.66,1.78,2.22,3.34,4.27,3.25,1.82-.08,3.92-1.3,4.27-3.25.72-4.06,1.46-8.13,2.6-12.1.29-1.02.61-2.03.96-3.02.17-.5.35-.99.54-1.48.09-.24.19-.49.29-.73-.19.46-.19.45.01-.02.82-1.77,1.71-3.48,2.8-5.1.29-.43.59-.85.9-1.26-.59.76.43-.48.54-.61.62-.7,1.28-1.37,1.98-2,.41-.37.83-.72,1.26-1.07-.67.53.63-.44.76-.53.9-.62,1.84-1.19,2.8-1.72.85-.47,1.71-.9,2.59-1.31.14-.06,1.65-.72.85-.39.51-.21,1.03-.42,1.55-.62,2.08-.79,4.2-1.48,6.33-2.13,1.8-.55,3.34-2.3,3.25-4.27-.08-1.82-1.3-3.92-3.25-4.27-3.21-.57-6.39-1.3-9.46-2.38-.4-.14-.8-.29-1.19-.44-.04-.02-1.28-.54-.5-.2-.77-.35-1.53-.7-2.28-1.1-.68-.36-1.35-.75-2-1.16-.36-.22-.71-.46-1.06-.7-.12-.08-1.1-.81-.72-.51.43.34-.39-.33-.46-.39-.3-.26-.59-.52-.88-.79-.57-.54-1.12-1.11-1.63-1.7-.12-.14-.85-1.04-.3-.33-.24-.31-.47-.63-.69-.96-.4-.59-.78-1.21-1.12-1.84-.15-.29-.3-.57-.44-.87-.13-.26-.44-1.09-.17-.36-.27-.73-.52-1.45-.7-2.2-.09-.37-.16-.75-.24-1.13-.2-.94,0,.7-.05-.35-.03-.78-.07-1.54-.03-2.32.08-1.75-1.18-3.4-2.72-4.04-1.71-.72-3.46-.28-4.84.92-.31.26-.61.53-.92.78-.08.06-.91.73-.5.41s-.44.33-.52.38c-.33.24-.66.47-.99.7-1.16.8-2.37,1.54-3.61,2.22-.65.36-1.31.69-1.97,1.02-.3.15-.61.29-.91.43-.29.13-.83.36-.24.12-1.37.57-2.76,1.07-4.18,1.49s-2.73.75-4.11,1.02c-.73.14-1.46.26-2.19.37.65-.1.14-.02-.22.02-.33.04-.67.07-1,.1-2.95.26-5.92.19-8.86-.17-2.31-.28-4.52,2.24-4.43,4.43.12,2.64,1.95,4.12,4.43,4.43h0Z"/>
  <path class="cls-1" d="M462.49,304.47c3.14,6.38,9.59,11.25,16.62,12.42l-2.65-6.5c-4.99,7.94-6.11,18.33-2.7,27.09l7.4-4.31c-3.92-3.99-9.57-5.16-14.95-4.29s-9.97,4.16-13.9,7.66l7.4,4.31c1.61-6.54-.08-13.25-4.5-18.32-3.66-4.2-8.88-6.66-13.88-8.87l-2.23,8.25c13.24-.49,26.02-8.72,31.36-20.97.92-2.12.69-4.85-1.59-6.06-1.91-1.01-5.07-.68-6.06,1.59-.56,1.29-1.2,2.53-1.93,3.73-.35.57-.72,1.13-1.11,1.68-.19.27-.65.88-.18.28-.22.29-.46.57-.69.85-.9,1.07-1.88,2.08-2.91,3.03-.5.45-1.01.88-1.53,1.31-.94.77.72-.5-.27.2-.3.21-.59.43-.9.63-1.11.76-2.27,1.44-3.46,2.06-.65.33-1.31.65-1.99.94.96-.42-.18.05-.3.1-.34.13-.69.25-1.03.37-1.27.43-2.57.78-3.88,1.03-.36.07-.72.13-1.08.19-1.2.2.94-.08-.27.03-.73.07-1.46.12-2.19.15-1.88.07-3.83,1.32-4.27,3.25-.4,1.77.22,4.19,2.03,5,2.12.94,4.23,1.89,6.26,3.01,1,.56,1.99,1.15,2.93,1.81-.01,0,.92.67.47.33s.44.37.43.36c.43.37.84.75,1.24,1.15s.76.83,1.13,1.25c-.27-.31-.24-.34,0,0,.18.27.36.53.53.8.32.52.59,1.06.86,1.6-.2-.4-.1-.28.01.06.11.32.22.64.31.96.17.59.28,1.18.41,1.77-.1-.43-.03-.39,0,.03.03.34.05.67.06,1.01.02.61-.01,1.21-.06,1.82-.03.42-.1.45,0,.03-.09.39-.16.79-.26,1.19-1.09,4.41,4.13,7.22,7.4,4.31.42-.38.85-.75,1.28-1.11.22-.18.44-.36.66-.54-.28.21-.3.23-.05.04.85-.64,1.73-1.23,2.64-1.77.36-.21.73-.42,1.11-.61.14-.07,1.64-.73.85-.43.9-.35,1.83-.64,2.77-.84.24-.05.49-.1.74-.13-.49.06-.57.08-.24.05.44,0,.88-.06,1.32-.06.5,0,1,.03,1.5.09-.79-.09-.08,0,.3.09.49.11.95.27,1.43.42.93.3-.47-.33.29.14.42.26.85.48,1.25.77-.83-.58.34.37.5.52,1.32,1.35,3.74,1.74,5.36.69,1.53-.99,2.76-3.14,2.03-5-.37-.94-.69-1.9-.95-2.88-.12-.46-.23-.92-.32-1.38-.04-.17-.3-1.83-.17-.82-.24-1.87-.27-3.78-.1-5.65.02-.27.05-.54.08-.81-.06.44-.07.5-.02.17.09-.46.16-.93.25-1.39.19-.92.44-1.84.73-2.74.17-.51.35-1.02.55-1.52-.32.83.11-.26.19-.43.46-.98.99-1.92,1.56-2.83,1.4-2.23.16-6.04-2.65-6.5-.73-.12-1.45-.27-2.16-.48-.35-.1-.71-.21-1.05-.34-.11-.04-1.06-.41-.5-.18.53.22-.53-.26-.64-.32-.27-.14-.55-.28-.81-.43-.64-.37-1.25-.78-1.86-1.2.63.43-.01,0-.26-.22-.23-.2-.46-.41-.69-.62-.49-.46-.96-.95-1.4-1.46-.1-.12-.77-1.07-.23-.26-.21-.31-.43-.6-.63-.91-.4-.62-.75-1.27-1.08-1.93-1.02-2.08-4.15-2.82-6.06-1.59-2.13,1.38-2.68,3.83-1.59,6.06h0Z"/>
  <g>
    <path class="cls-1" d="M493.16,77.57c.28,5.47.56,10.94.84,16.4.12,2.31,1.95,4.54,4.43,4.43,2.3-.1,4.55-1.95,4.43-4.43l-.84-16.4c-.12-2.31-1.95-4.54-4.43-4.43-2.3.1-4.55,1.95-4.43,4.43h0Z"/>
    <path class="cls-1" d="M488.97,92.47h17.77c2.32,0,4.53-2.04,4.43-4.43s-1.94-4.43-4.43-4.43h-17.77c-2.32,0-4.53,2.04-4.43,4.43s1.94,4.43,4.43,4.43h0Z"/>
  </g>
</svg>