<?xml version="1.0" encoding="UTF-8"?>
<svg id="Layer_1" xmlns="http://www.w3.org/2000/svg" version="1.1" viewBox="0 0 500 500">
  <!-- Generator: Adobe Illustrator 29.2.1, SVG Export Plug-In . SVG Version: 2.1.0 Build 116)  -->
  <defs>
    <style>
      .st0 {
        fill: #ffedd6;
      }

      .st1 {
        fill: none;
        stroke: #ffedd6;
        stroke-miterlimit: 10;
        stroke-width: 10.27px;
      }
    </style>
  </defs>
  <g>
    <line class="st1" x1="88.5" y1="370.54" x2="117" y2="399.04"/>
    <rect class="st1" x="113.55" y="193.42" width="285.83" height="75.3" transform="translate(-88.27 249.03) rotate(-45)"/>
    <path class="st1" d="M166.36,374.42l-53.25-53.25-3.79,3.79c-3.51,1.12-6.57,3.72-8.08,7.59l-23.78,60.77c-4.11,10.5,6.25,20.87,16.76,16.76l60.77-23.78c3.87-1.51,6.47-4.57,7.59-8.08l3.79-3.79Z"/>
    <path class="st1" d="M400.46,141.06l8.29-8.29c6.64-6.64,6.64-17.41,0-24.05l-29.2-29.2c-6.64-6.64-17.41-6.64-24.05,0l-8.29,8.29,53.25,53.25Z"/>
  </g>
  <path class="st0" d="M91.03,201.12c-.18-.41-.36-.83-.54-1.24.25.59-.26-.63-.33-.8-.37-.91-.73-1.82-1.08-2.73-.7-1.83-1.36-3.67-1.98-5.53-1.23-3.72-2.3-7.49-3.2-11.3s-1.66-7.81-2.22-11.76c-.03-.22-.06-.45-.09-.67.01.09.08.61.01.08-.05-.45-.11-.9-.17-1.35-.12-1.05-.24-2.1-.34-3.14-.18-1.95-.33-3.9-.43-5.86-.4-7.83-.05-15.64.91-23.41.06-.53-.02.17-.03.23.03-.19.05-.39.08-.58.07-.45.14-.91.21-1.36.14-.85.28-1.69.44-2.53.32-1.69.7-3.36,1.15-5.02s.96-3.28,1.55-4.87c.16-.43.33-.85.5-1.27-.28.72.04-.08.16-.36.34-.77.71-1.52,1.1-2.27.81-1.54,1.73-3,2.75-4.41.5-.69-.31.35.24-.31.25-.3.49-.59.75-.88.6-.68,1.23-1.33,1.89-1.95.6-.56,1.22-1.09,1.86-1.6-.58.45.2-.13.4-.27.44-.31.9-.62,1.35-.91,1.5-.95,3.07-1.76,4.69-2.49.77-.35-.35.12.44-.18.38-.15.77-.3,1.15-.44.9-.33,1.82-.63,2.74-.9,1.72-.51,3.46-.92,5.21-1.26.82-.16,1.65-.29,2.48-.42.9-.14.26-.04.07-.02.21-.03.42-.05.64-.08.5-.06.99-.11,1.49-.16,1.85-.18,3.71-.27,5.56-.27s3.71.08,5.55.27c.42.04.85.09,1.27.14-.86-.1.48.08.7.12.91.15,1.81.33,2.71.53,1.79.4,3.56.91,5.29,1.54.46.17.92.36,1.38.53s-.02-.01-.1-.05c.19.08.39.17.58.26.84.38,1.66.78,2.48,1.22,1.53.82,2.94,1.78,4.36,2.77.42.29-.11-.09-.16-.13.15.12.3.23.44.35.29.24.58.48.87.73.67.58,1.31,1.18,1.93,1.8.53.53,1.05,1.09,1.54,1.65.25.28.49.57.73.86.08.1.58.72.23.28-.33-.42.16.22.22.29.96,1.31,1.83,2.68,2.59,4.12.35.66.66,1.34.97,2.01.22.47-.07-.17-.09-.22.09.23.18.46.27.69.15.4.3.81.43,1.22.23.7.44,1.42.61,2.14.1.42.2.84.28,1.27.04.18.07.36.1.55.02.11.16.91.06.32-.09-.55.06.52.07.69.04.43.07.87.09,1.3.03.79.03,1.58-.01,2.37-.02.35-.05.7-.08,1.05-.01.11,0,.43-.06.52.25-.36.11-.69,0-.15-.14.75-.29,1.5-.49,2.23s-.43,1.47-.69,2.18c-.14.37-.39.96-.07.24-.17.38-.34.75-.52,1.12-.67,1.37-1.46,2.69-2.36,3.92-.1.14-.21.28-.31.42.57-.76.18-.24.05-.09-.23.27-.45.54-.69.8-.51.56-1.04,1.1-1.59,1.62-.3.28-.6.54-.91.8s-.82.58-.18.15c-.67.45-1.32.92-2.02,1.33-.6.35-1.21.66-1.83.96-.78.38.62-.21-.19.08-.43.16-.86.31-1.3.45-.66.2-1.34.37-2.02.5-.17.03-.34.05-.51.09-.54.11.33-.04.33-.04-.31.21-1.22.11-1.58.12-.83.03-1.65,0-2.48-.08-.87-.07.42.12-.44-.07-.54-.12-1.07-.23-1.6-.38-.39-.12-.78-.26-1.17-.39.69.22-.18-.08-.42-.2-.37-.18-.72-.38-1.07-.6-.23-.14-.46-.3-.69-.45-.38-.25-.34-.3,0,0-.55-.51-1.1-.99-1.59-1.55-.12-.14-.24-.29-.36-.42-.44-.49.37.59.03.03-.22-.37-.49-.71-.71-1.08-.39-.64-.72-1.31-1.03-1.98.38.8-.07-.2-.17-.5-.15-.42-.28-.84-.4-1.26-.21-.73-.38-1.47-.52-2.21-.05-.25-.08-.5-.13-.75.01.05.08.79.03.26-.04-.44-.09-.87-.12-1.31-.1-1.52-.09-3.05.05-4.57,0-.09.13-1.02.11-1.03.02,0-.18,1.13-.02.18.03-.17.05-.34.08-.51.13-.73.28-1.45.46-2.17.36-1.43.82-2.82,1.36-4.2.04-.1.27-.62.03-.09-.25.57.05-.1.11-.24.14-.31.29-.62.44-.92.33-.66.67-1.32,1.04-1.96.74-1.3,1.56-2.55,2.45-3.75.14-.19.28-.37.42-.56-.02.03-.49.61-.17.22.23-.27.44-.54.66-.81.53-.63,1.07-1.24,1.63-1.84,1.05-1.12,2.16-2.19,3.32-3.2.54-.47,1.09-.93,1.65-1.38.14-.11.28-.22.42-.33-.04.03-.61.45-.2.16.39-.28.77-.57,1.16-.85,1.28-.91,2.6-1.77,3.95-2.56s2.75-1.54,4.17-2.22c.66-.32,1.32-.61,1.99-.91.61-.27-.69.27-.07.03.17-.07.34-.14.5-.2.39-.16.79-.31,1.18-.46,2.94-1.09,5.97-1.94,9.05-2.5,1.02-.19,2.04-.36,3.07-.5-.62.09.52-.06.7-.08.55-.06,1.1-.12,1.66-.17,2.05-.19,4.11-.31,6.17-.35,4.21-.1,8.43.08,12.63.44,2.07.17,4.14.39,6.21.63.96.11,1.91.23,2.87.36-.01,0,.77.1.36.05s.37.05.36.05c.64.09,1.28.18,1.91.27,4.15.59,8.28,1.25,12.43,1.88,7.64,1.16,15.31,2.26,23.04,2.63,14.02.67,28.67-.89,41.22-7.59,3.13-1.67,6.01-3.7,8.75-5.95,1.83-1.5,1.67-4.83,0-6.36-1.94-1.78-4.42-1.6-6.36,0-.16.13-1.1.88-.76.62s-.49.36-.63.46c-.78.57-1.58,1.11-2.39,1.63-1.45.92-2.96,1.77-4.5,2.53-.74.37-1.49.71-2.25,1.05-.17.07-.8.32.02,0-.18.07-.35.14-.53.21-.47.19-.95.37-1.43.55-1.62.6-3.28,1.12-4.95,1.57s-3.51.87-5.29,1.2c-.83.15-1.67.29-2.5.42-.19.03-.39.06-.58.09-.07.01-.72.1-.18.03.59-.08-.24.03-.38.04-.26.03-.52.06-.78.09-3.61.4-7.25.57-10.88.57s-7.3-.19-10.94-.5c-1.83-.16-3.67-.35-5.5-.57-.96-.12-1.92-.24-2.88-.37.61.08-.54-.08-.71-.1-.64-.09-1.27-.18-1.91-.27-9-1.3-17.96-2.87-27-3.83s-17.94-1.16-26.89.06c-7.18.98-14.06,3.16-20.46,6.58-11.79,6.29-22.48,17.29-24.91,30.85-1.3,7.25-.71,15.5,3.61,21.72,2.54,3.65,5.95,6.27,10.18,7.69,3.93,1.31,8.32,1.33,12.33.4,7.04-1.62,13.02-6.58,16.79-12.63,3.99-6.41,5.19-13.94,3.85-21.31-2.8-15.4-16.47-26.66-31.21-29.98-8.18-1.85-16.63-1.7-24.85-.18s-15.57,4.53-21.62,9.88c-11.86,10.5-14.27,28.13-14.98,43.06-.79,16.76,1.58,33.79,6.93,49.69,1.37,4.08,2.96,8.08,4.69,12.03.95,2.16,4.28,2.83,6.16,1.61,2.24-1.45,2.63-3.84,1.61-6.16h0Z"/>
  <path class="st0" d="M282,377.82c16.86,4.19,34.32,8.26,51.71,4.94,14.32-2.73,27.31-10.68,37.69-20.73,11.17-10.82,19.41-24.33,25.95-38.34,1.76-3.78,3.41-7.61,5.01-11.46,1.46-3.52,3.07-7.08,4.01-10.79,1.07-4.25,1.16-8.88-1.08-12.79-1.97-3.43-5.3-5.49-8.88-6.9-2.99-1.18-6.21-1.83-9.36-2.43-3.54-.68-7.15-1.2-10.75-1.31-7.14-.21-14.45,1.49-19.78,6.49-10.61,9.97-6.96,26.7.32,37.45,7.82,11.54,20.3,19.83,33.34,24.33,6.57,2.26,13.54,3.52,20.48,3.77,3.34.12,6.69-.03,10-.44,3.72-.46,7.53-1.02,11.03-2.44,4.15-1.68,7.46-4.26,9.84-8.1,2.09-3.38,3.44-7.34,4.52-11.14,2.18-7.68,2.9-15.81,2.46-23.78-.9-16.29-6.02-31.98-11.99-47.04-1.46-3.67-2.97-7.32-4.5-10.96-.91-2.16-3.01-3.96-5.54-3.14-2.07.67-4.12,3.21-3.14,5.54,5.91,14.03,11.65,28.33,14.59,43.32.35,1.76.64,3.53.91,5.31.22,1.45-.1-.88.08.57.05.44.11.88.16,1.33.12,1.03.22,2.06.3,3.09.29,3.65.34,7.32.12,10.97-.05.87-.12,1.74-.21,2.61-.04.43-.1.87-.14,1.3-.16,1.43.15-.88-.07.54-.29,1.88-.64,3.74-1.08,5.59-.42,1.72-.91,3.43-1.47,5.1-.29.85-.59,1.69-.92,2.53-.04.09-.55,1.33-.17.44-.22.5-.45,1-.69,1.48-.3.61-.63,1.2-.99,1.78-.21.35-.44.68-.67,1.01.54-.78-.23.27-.3.35-.27.3-.55.59-.84.87-.08.07-1.11.89-.34.33-.77.56-1.6,1-2.44,1.43-1.14.59.8-.24-.43.18-.39.13-.77.28-1.16.4-.78.25-1.58.46-2.38.65-1.64.38-3.3.68-4.97.9,1.13-.15-.14,0-.31.03-.38.04-.75.08-1.13.12-.75.07-1.51.13-2.26.17-1.64.09-3.28.12-4.92.09-1.51-.03-3.02-.12-4.53-.25-.75-.07-1.51-.16-2.26-.24,1.13.13-.13-.02-.3-.05-.5-.07-1-.15-1.5-.24-3.11-.54-6.18-1.3-9.19-2.27-1.44-.47-2.87-.98-4.28-1.54-.35-.14-.7-.28-1.05-.43.98.41-.18-.09-.32-.15-.81-.36-1.61-.74-2.4-1.13-2.83-1.4-5.56-2.99-8.16-4.78-.62-.43-1.24-.87-1.85-1.32-.11-.08-1.12-.85-.29-.21-.3-.23-.6-.47-.89-.7-1.28-1.03-2.51-2.11-3.7-3.23-1.01-.95-1.98-1.94-2.93-2.96-.51-.55-1.01-1.11-1.49-1.68-.23-.27-.45-.54-.67-.81-.31-.39-.29-.37.05.07-.14-.19-.28-.38-.42-.57-1.78-2.43-3.28-5.07-4.48-7.83.44,1.02-.03-.1-.09-.26-.13-.34-.25-.67-.37-1.01-.24-.68-.46-1.36-.65-2.05s-.37-1.37-.52-2.06c-.07-.34-.14-.69-.2-1.03-.05-.29-.46-1.69-.09-.52-.37-1.18-.21-2.83-.15-4.06.02-.33.05-.66.07-.99.06-1.13-.2,1,0-.11.14-.75.28-1.49.49-2.23.09-.31.19-.62.29-.93.08-.22.36-1.27.02-.13.18-.6.57-1.2.88-1.74.17-.28.34-.56.52-.84.12-.18.8-1.05.08-.16.51-.63,1.05-1.22,1.64-1.77.26-.25.54-.48.81-.72.88-.77-.76.46.22-.15.6-.37,1.17-.76,1.79-1.09.31-.16.62-.31.94-.46,1.04-.51-.89.28.21-.08.78-.26,1.55-.53,2.34-.73.69-.17,1.39-.3,2.09-.42,1.19-.22-.98.07.23-.03.36-.03.72-.07,1.09-.1,1.6-.12,3.21-.11,4.81-.02.75.04,1.51.1,2.26.18.38.04.75.08,1.13.12,1.27.13-.95-.15.31.04,1.62.25,3.23.53,4.83.86,1.43.3,2.86.61,4.27.97.59.15,1.17.31,1.75.49.35.11.69.22,1.04.34.2.07,1.65.67.6.2.64.29,1.28.6,1.88.97.3.18.58.38.87.57-.9-.62-.01.01.15.17.25.24.47.49.71.74-.73-.75-.02-.03.12.2.21.33.4.67.55,1.03-.38-.89.12.65.17.82.33,1.13.05-.8.05.38,0,.4.03.81.02,1.21s-.04.82-.09,1.23c.12-1.03-.08.34-.11.45-.37,1.8-.97,3.56-1.62,5.27s-1.29,3.27-1.95,4.9c-.34.82-.67,1.64-1.02,2.47,0,.02-.58,1.37-.24.56-.23.55-.47,1.09-.7,1.64-2.93,6.79-6.15,13.47-9.87,19.87-1.85,3.19-3.82,6.31-5.93,9.33-.51.72-1.02,1.44-1.55,2.16-.26.36-.53.71-.79,1.06,0,.01-.89,1.16-.37.49-1.12,1.44-2.27,2.84-3.47,4.21-2.11,2.42-4.34,4.74-6.7,6.92-1.18,1.09-2.38,2.16-3.62,3.18-.62.51-1.24,1.02-1.87,1.51.76-.6-.28.21-.36.27-.43.32-.86.64-1.29.95-2.7,1.94-5.52,3.72-8.45,5.29-1.4.75-2.83,1.45-4.28,2.1-.36.16-.73.32-1.09.48.93-.4-.28.11-.39.15-.86.34-1.73.67-2.6.97-3.18,1.11-6.46,1.95-9.78,2.51-.47.08-.95.15-1.42.22.83-.12-.72.08-.7.08-.95.11-1.9.19-2.85.25-2.06.14-4.13.18-6.2.14-8.2-.15-15-1.37-23.11-3.17-3.78-.84-7.54-1.77-11.3-2.7-2.28-.57-4.99.73-5.54,3.14s.7,4.93,3.14,5.54h0Z"/>
</svg>