<?xml version="1.0" encoding="UTF-8"?>
<svg id="Layer_1" data-name="Layer 1" xmlns="http://www.w3.org/2000/svg" viewBox="0 0 500 500">
  <defs>
    <style>
      .cls-1 {
        fill: #ffedd6;
      }

      .cls-2, .cls-3 {
        fill: none;
        stroke: #ffedd6;
        stroke-miterlimit: 10;
        stroke-width: 12.84px;
      }

      .cls-3 {
        stroke-linecap: round;
      }
    </style>
  </defs>
  <g>
    <path class="cls-2" d="M203.05,294.46l102.44-21.21c3.67-12.69,8.24-31.35,10.83-54.27,5.5-48.63,9.58-84.6-12.41-113.23-19.96-25.99-57.27-40.56-93.63-34.38-41.14,6.98-72.35,39.04-80.32,73.15-9.36,40.1,15.17,75.47,39.4,110.4,12.34,17.79,24.75,30.93,33.69,39.54Z"/>
    <rect class="cls-2" x="206.4" y="286.44" width="118.16" height="91.19" rx="10.02" ry="10.02" transform="translate(-61.8 60.71) rotate(-11.7)"/>
    <line class="cls-3" x1="181.03" y1="228.2" x2="225.28" y2="289.86"/>
    <path class="cls-2" d="M237.14,385.86l.56,2.72c2.87,13.87,16.57,22.86,30.43,19.99l22.66-4.69c13.87-2.87,22.86-16.57,19.99-30.43l-.56-2.72-73.08,15.13Z"/>
    <line class="cls-3" x1="300.21" y1="203.32" x2="284.09" y2="277.49"/>
    <path class="cls-1" d="M199.43,252.52c2.63-2.02,5.26-4.04,7.89-6.06,1.25-.96,2.5-1.92,3.75-2.88s2.39-2.11,3.78-2.7l-1.84.78.33-.08-2.05.28h.35c-.68-.1-1.37-.19-2.05-.29l.35.07-1.84-.78c.36.15.62.31.93.55l-1.56-1.2c4.15,3.47,8.22,7.04,12.32,10.56,1.5,1.29,3.38,2.35,5.45,2.26,1.9-.09,4.22-.69,5.45-2.26,5.48-6.97,10.96-13.94,16.44-20.91h-10.9c4.81,5.85,9.86,11.5,15.15,16.92,3.43,3.52,9.68,2.73,12.1-1.56,2.61-4.62,5.54-9.05,8.77-13.25l-1.2,1.56c1.49-1.91,3.03-3.78,4.64-5.6h-10.9c6.25,5.4,12.22,11.12,17.88,17.14,2.77,2.94,8.14,3,10.9,0,2.9-3.15,2.95-7.76,0-10.9-5.66-6.02-11.62-11.74-17.88-17.14-1.5-1.29-3.39-2.35-5.45-2.26s-4.1.73-5.45,2.26c-5.55,6.28-10.51,13.1-14.62,20.4,4.03-.52,8.07-1.04,12.1-1.56-5.29-5.42-10.34-11.06-15.15-16.92-2.43-2.96-8.5-3.05-10.9,0-5.48,6.97-10.96,13.94-16.44,20.91h10.9c-2.63-2.26-5.27-4.52-7.9-6.78-3.89-3.33-7.83-7.81-13.54-6.37-2.02.51-3.39,1.59-4.97,2.8l-4.14,3.18c-2.83,2.17-5.66,4.35-8.49,6.52-1.67,1.28-2.96,2.49-3.54,4.61-.51,1.84-.28,4.3.78,5.94s2.64,3.09,4.61,3.54,4.34.45,5.94-.78h0Z"/>
    <path class="cls-1" d="M213.67,334.55c14.48-3,28.96-5.99,43.44-8.99,3.95-.82,6.61-5.7,5.38-9.48-1.35-4.18-5.24-6.26-9.48-5.38-14.48,3-28.96,5.99-43.44,8.99-3.95.82-6.61,5.7-5.38,9.48,1.35,4.18,5.24,6.26,9.48,5.38h0Z"/>
    <path class="cls-1" d="M214.92,362.08l54-11.18c3.95-.82,6.61-5.7,5.38-9.48-1.35-4.18-5.24-6.26-9.48-5.38-18,3.73-36,7.45-54,11.18-3.95.82-6.61,5.7-5.38,9.48,1.35,4.18,5.24,6.26,9.48,5.38h0Z"/>
  </g>
  <path class="cls-1" d="M72.4,330.31c9.95-5.69,16.27-16.06,17.35-27.38l-7.97,4.57c13.12,7.14,28.96,7.42,42.43,1.08-2.14-2.77-4.28-5.54-6.42-8.32-5.52,6.1-6.99,14.6-5.08,22.48,1.88,7.76,7.05,14.35,12.64,19.83l5.15-8.85c-9.81-1.79-19.87,1.12-26.89,8.31-6.23,6.39-9.47,14.88-12.48,23.1l10.4,1.41c-1.63-16.2-10.47-30.79-23.88-40-3.72-2.56-7.8-4.53-12.05-6.05-2.61-.93-5.91,1.05-6.51,3.7-.68,2.97.9,5.51,3.7,6.51.4.14.8.29,1.19.44.17.07.34.13.51.2.87.34-.14-.05-.26-.12.75.39,1.55.69,2.3,1.06,1.57.78,3.09,1.64,4.57,2.59.71.46,1.41.93,2.1,1.43.29.21.58.43.87.65.58.42-.77-.62-.21-.16.19.15.38.3.57.45,1.36,1.11,2.66,2.29,3.9,3.53s2.33,2.47,3.4,3.78c.14.17.29.43.45.57,0,0-.62-.82-.27-.35.25.34.51.68.76,1.02.5.69.97,1.39,1.43,2.1.95,1.47,1.83,2.99,2.62,4.56.38.75.75,1.52,1.09,2.29.07.16.13.35.22.5,0,0-.4-.98-.18-.43.18.45.36.9.53,1.35.68,1.81,1.25,3.66,1.7,5.54.23.94.42,1.89.59,2.84.03.18.06.36.09.54.01.09.18,1.28.07.37-.1-.77-.02-.14,0,.02.04.36.08.72.12,1.08.27,2.65,1.81,4.83,4.59,5.2s4.89-1.28,5.81-3.79c.65-1.78,1.31-3.56,2.01-5.32.17-.43.35-.85.52-1.28.23-.54.2-.49-.08.17.1-.24.21-.48.31-.72.37-.84.75-1.67,1.16-2.5.8-1.63,1.67-3.22,2.65-4.75.46-.72.93-1.6,1.53-2.21-.92.93-.09.12.12-.13.33-.39.66-.77,1.01-1.15.61-.66,1.24-1.28,1.91-1.87.11-.09,1.26-1.09.65-.57s.62-.44.75-.53c.79-.53,1.61-1.02,2.45-1.45.24-.12.49-.24.73-.36.54-.24.49-.23-.15.04.28-.19.82-.32,1.14-.43.9-.32,1.81-.58,2.74-.79.48-.11,1.11-.33,1.6-.3-1.3-.08-.16.02.21,0,.95-.08,1.9-.11,2.85-.08.54.02,1.08.07,1.63.11.61.07.54.06-.2-.03.27.04.54.09.8.14,2.25.41,4.83-.25,5.98-2.43s.9-4.72-.83-6.42c-1.18-1.16-2.34-2.35-3.43-3.59-.55-.62-1.08-1.26-1.6-1.9-.87-1.08.63.89-.18-.24-.24-.34-.48-.67-.72-1.01-.89-1.3-1.71-2.64-2.42-4.05-.18-.37-.35-.74-.53-1.11-.16-.36-.12-.25.13.33-.08-.19-.15-.38-.23-.57-.29-.75-.54-1.51-.76-2.29-.18-.66-.34-1.33-.46-2.01-.04-.25-.09-.49-.12-.74l.09.66c-.15-.22-.08-.84-.1-1.13-.05-.75-.06-1.51-.02-2.26.02-.38.05-.75.08-1.12.09-1.28-.23,1.18,0-.07.14-.73.29-1.46.5-2.17.1-.35.24-.7.35-1.05.31-1.01-.49.93.03-.1.31-.6.61-1.2.97-1.77.09-.14.74-1.23.32-.52s.41-.46.54-.6c1.78-1.97,2.07-4.81.41-6.95s-4.41-2.51-6.83-1.36c-.26.12-.83.49-1.12.51.57-.24.68-.28.32-.14-.19.08-.38.15-.57.23-.7.27-1.41.52-2.12.76-1.43.46-2.88.85-4.35,1.15-.7.14-1.5.4-2.22.39,1.33,0,.08-.01-.22.02-.41.04-.82.08-1.22.11-1.5.12-3,.15-4.5.11-.75-.02-1.5-.06-2.25-.13-.34-.03-.68-.06-1.02-.1-.2-.02-.41-.05-.61-.07-.4-.05-.27-.03.39.05-.17.18-1.95-.33-2.22-.39-.74-.15-1.47-.32-2.19-.51-1.45-.38-2.88-.84-4.28-1.37-.25-.1-.51-.2-.76-.3l.51.22c-.34-.07-.81-.36-1.12-.51-.74-.35-1.47-.72-2.19-1.12-1.68-.91-3.67-.98-5.35,0s-2.44,2.66-2.62,4.57c-.02.22-.11.53-.08.75-.14-1,.09-.64,0-.1s-.2,1.11-.33,1.66c-.24,1.04-.53,2.06-.88,3.07-.17.5-.5,1.06-.6,1.58.06-.31.38-.85.08-.23-.14.28-.27.57-.41.85-.5,1.01-1.06,1.99-1.67,2.94-.27.42-.56.84-.85,1.24-.47.66-.39.23.04-.02-.17.1-.34.43-.47.59-.72.87-1.49,1.7-2.3,2.48-.41.39-.83.77-1.25,1.14-.19.16-.39.32-.58.48-.55.48.77-.55.18-.14-.98.69-1.95,1.36-2.99,1.95-2.41,1.38-3.44,4.86-1.9,7.24s4.67,3.37,7.24,1.9h0Z"/>
  <g>
    <path class="cls-1" d="M388.38,167.17c.49,9.52.98,19.04,1.46,28.56.21,4.02,3.4,7.9,7.71,7.71,4-.18,7.93-3.39,7.71-7.71-.49-9.52-.98-19.04-1.46-28.56-.21-4.02-3.4-7.9-7.71-7.71-4,.18-7.93,3.39-7.71,7.71h0Z"/>
    <path class="cls-1" d="M381.07,193.12h30.93c4.03,0,7.89-3.54,7.71-7.71s-3.39-7.71-7.71-7.71h-30.93c-4.03,0-7.89,3.54-7.71,7.71s3.39,7.71,7.71,7.71h0Z"/>
  </g>
</svg>