<svg xmlns="http://www.w3.org/2000/svg" width="102" height="102" viewBox="0 0 102 102" fill="none">
<path d="M38.5294 80.5462C17.4624 86.8662 17.4624 70.0127 9.03564 67.906M68.0231 93.1863V76.8805C68.1811 74.8714 67.9097 72.8517 67.2268 70.9556C66.5439 69.0595 65.4653 67.3305 64.0625 65.8836C77.2925 64.4089 91.1967 59.395 91.1967 36.3899C91.1956 30.5072 88.9328 24.8502 84.8766 20.5896C86.7973 15.443 86.6615 9.75429 84.4974 4.70517C84.4974 4.70517 79.5256 3.23049 68.0231 10.941C58.366 8.32372 48.1864 8.32372 38.5294 10.941C27.0268 3.23049 22.055 4.70517 22.055 4.70517C19.8909 9.75429 19.7551 15.443 21.6758 20.5896C17.5894 24.8818 15.3242 30.59 15.3557 36.5163C15.3557 59.3528 29.2599 64.3668 42.4899 66.01C41.1037 67.4424 40.0347 69.1507 39.3523 71.0236C38.6699 72.8965 38.3895 74.8921 38.5294 76.8805V93.1863" stroke="#1E1E1E" stroke-width="6" stroke-linecap="round" stroke-linejoin="round"/>
</svg>