<?xml version="1.0" encoding="UTF-8"?>
<svg id="b" data-name="Layer 2" xmlns="http://www.w3.org/2000/svg" viewBox="0 0 360 360">
  <defs>
    <style>
      .d {
        stroke-width: 0px;
      }
    </style>
  </defs>
  <path class="d" d="m71.09,269.47c-18.93,0-33.68-4.29-44.23-12.89-10.56-8.6-15.83-20.94-15.83-37.05,0-16.97,5.27-29.54,15.83-37.7,10.55-8.16,25.3-12.24,44.23-12.24h47.98v33.62h-24.81c-7.62,0-13.5,1.31-17.63,3.92-4.14,2.61-6.2,6.31-6.2,11.1,0,3.26,1.41,5.77,4.24,7.51,2.83,1.74,6.74,2.61,11.75,2.61,5.44,0,10.12-1.03,14.04-3.1,3.92-2.07,6.96-5,9.14-8.81,2.17-3.8,3.26-8.21,3.26-13.22h15.34c0,21.11-5.01,37.43-15.01,48.96-10.01,11.54-24.05,17.3-42.11,17.3Zm43.41-3.92l-1.63-37.54v-42.43c0-7.62-.44-14.47-1.31-20.56-.87-6.09-3.05-10.88-6.53-14.36-3.48-3.48-9.14-5.22-16.97-5.22-5.44,0-9.9,1.31-13.38,3.92-3.48,2.61-6.42,5.66-8.81,9.14l-51.25-16.32c4.57-8.92,10.28-16.65,17.14-23.17,6.85-6.53,14.9-11.59,24.15-15.18,9.25-3.59,19.53-5.39,30.85-5.39,17.41,0,32.31,3.16,44.72,9.47,12.4,6.31,21.87,15.13,28.4,26.44,6.53,11.32,9.79,24.48,9.79,39.5v91.72h-55.16Z"/>
  <g>
    <path class="d" d="m204.35,200.93c-10.78,3.78-20.55,4.34-29.33,1.7.2-12.32.39-24.64.59-36.96,1.29.7,5.45,2.72,10.39,1.48,1.18-.3,5.18-1.3,6.99-4.61,1.76-3.23.58-7.04.03-8.66-9.71-28.39-19.42-56.78-29.13-85.18,13.07-4.58,26.15-9.17,39.22-13.75,10.1,29.4,20.2,58.8,30.3,88.2,4.64,13.25,4.42,24.98-.66,35.19-5.09,10.2-14.55,17.73-28.39,22.58Z"/>
    <path class="d" d="m179.96,53.68c-6.12,2.14-12.18,1.78-18.17-1.11-6-2.88-10.07-7.39-12.21-13.5s-1.78-12.17,1.11-18.17c2.88-6,7.39-10.07,13.5-12.21,6.12-2.14,12.17-1.77,18.17,1.11,6,2.89,10.07,7.39,12.21,13.5,2.14,6.12,1.77,12.18-1.11,18.17-2.89,6-7.39,10.07-13.5,12.21Z"/>
  </g>
  <g>
    <path class="d" d="m227.57,319.07c-10.58-2.85-19.01-7.61-25.29-14.25-6.28-6.65-10.24-14.91-11.89-24.79-1.65-9.87-.83-20.92,2.46-33.14,3.34-12.37,8.19-22.37,14.57-30,6.37-7.63,13.94-12.74,22.72-15.33,8.77-2.59,18.44-2.46,29.02.4,9.24,2.49,16.25,6.86,21.04,13.11,4.79,6.25,7.46,14.12,8.01,23.62.55,9.5-.84,20.43-4.17,32.8-3.3,12.22-7.58,22.33-12.86,30.34-5.28,8.01-11.56,13.51-18.83,16.5-7.28,2.99-15.54,3.24-24.78.75Zm20.73-34.21c3.72,1,7.29.97,10.7-.11,3.41-1.08,6.36-3,8.87-5.76,2.5-2.76,4.32-6.23,5.44-10.4,1.12-4.17,1.3-8.08.53-11.73-.78-3.64-2.37-6.75-4.8-9.33s-5.57-4.38-9.45-5.43c-3.58-.96-7.02-.93-10.33.09-3.32,1.02-6.22,2.92-8.72,5.68-2.51,2.76-4.39,6.21-5.67,10.34-.98,4.21-1.08,8.14-.3,11.79.77,3.65,2.36,6.79,4.77,9.44,2.4,2.65,5.39,4.45,8.97,5.42Zm11.72,40.08l3.6-21.33c15.07-55.41,30.14-110.81,45.22-166.22,13.38,3.61,26.75,7.22,40.13,10.82-16.91,62.34-33.81,124.69-50.72,187.03l-38.22-10.31Z"/>
    <path class="d" d="m286.38,300.46l-25.8-6.96c-1.27-4.44-3.64-14.99-.21-27.73,1.2-4.46,4.61-14.72,14.12-23.86,8.6,2.32,17.2,4.64,25.8,6.96l-13.92,51.59Z"/>
  </g>
  <path class="d" d="m123.39,276.86c2.54,2.36,9.6,8.28,20.31,9.48,16.66,1.86,28.21-9.26,29.79-10.83-.75,1.96-5.18,14.19,1.35,27.08,7.07,13.97,21.19,17.22,23.02,17.6-2.33.32-16.18,2.47-24.38,14.9-4.66,7.06-5.33,14.17-5.42,17.6-3.66-2.45-12.84-7.87-25.73-8.13-10.9-.21-19.12,3.39-23.02,5.42.4-3.64.7-10.9-2.71-18.96-5-11.84-14.58-17.37-17.6-18.96,2.56-.78,13.87-4.54,20.31-16.25,4.41-8.01,4.31-15.67,4.06-18.96Z"/>
  <path class="d" d="m300.25,87.52c-1.23,2.61-4.16,9.7-2.41,18.51,2.72,13.69,14.45,20.06,16.1,20.92-1.74-.1-12.56-.53-21.16,7.9-9.31,9.13-8.33,21.15-8.17,22.71-.84-1.77-6.04-12.22-17.96-15.59-6.78-1.92-12.59-.66-15.34.13,1.02-3.52,3.01-12.18-.03-22.47-2.58-8.71-7.5-14.32-10.1-16.91,2.99-.6,8.83-2.19,14.37-6.92,8.13-6.95,10.11-15.95,10.61-18.75,1.26,1.83,7.1,9.86,18.01,12.03,7.47,1.48,13.52-.53,16.07-1.55Z"/>
</svg>